# xmcd
#
# Track frame offsets:
#	150
#	20308
#	43914
#	63065
#	92332
#	114176
#	141904
#	167192
#	193378
#	211153
#	238297
#	262001
#
# Disc length: 4167 seconds
#
# Revision: 1
# Processed by: cddbd v1.5.1PL0 Copyright (c) Steve Scherf et al.
# Submitted via: audiograbber 1.83.01
#
DISCID=a810450c
DTITLE=Tecora Rogers - Live In Singapore
DYEAR=2005
DGENRE=Blues
TTITLE0=Embraceable You
TTITLE1=How Deep Is The Ocean
TTITLE2=Orange Colored Sky
TTITLE3=You'd Be So Nice To Come Home To
TTITLE4=When Sunny Gets Blue
TTITLE5=The Way You Look Tonight
TTITLE6=Neither One Of Us
TTITLE7=The Nearness Of You
TTITLE8=Can't Buy Me Love
TTITLE9=Route 66
TTITLE10=What a Difference a Day Made
TTITLE11=Stormy Monday
EXTD=
EXTT0=
EXTT1=
EXTT2=
EXTT3=
EXTT4=
EXTT5=
EXTT6=
EXTT7=
EXTT8=
EXTT9=
EXTT10=
EXTT11=
PLAYORDER=
